<svg xmlns="http://www.w3.org/2000/svg" fill="#4F4F4F" height="48" viewBox="0 -960 960 960" width="48"><path d="M222.783-262.957q61.739-39.304 123.871-58.956 62.133-19.652 133.391-19.652 71.259 0 134.194 20.217 62.935 20.218 124.978 58.391 41.87-54.869 59.152-106.432Q815.652-420.951 815.652-480q0-142.748-96.423-239.2t-239.13-96.452q-142.708 0-239.229 96.452-96.522 96.452-96.522 239.2 0 59.565 17.515 110.71 17.516 51.144 60.92 106.333Zm257.071-179.565q-60.682 0-102.224-41.733-41.543-41.732-41.543-102.043 0-60.311 41.688-102.18 41.689-41.87 102.371-41.87 60.682 0 102.224 42.016 41.543 42.015 41.543 102.326 0 60.31-41.688 101.897-41.689 41.587-102.371 41.587Zm-.42 381.348q-85.55 0-162.19-32.85-76.64-32.851-133.91-90.596-57.269-57.744-89.715-133.275-32.445-75.532-32.445-162.543 0-86.446 33.21-162.478 33.211-76.032 90.53-133.208t132.925-90.222q75.606-33.045 162.661-33.045 86.49 0 162.349 33.522 75.859 33.523 132.71 90.428 56.851 56.905 90.342 132.917 33.49 76.011 33.49 162.258 0 86.971-33.045 162.502-33.046 75.531-90.291 132.85-57.245 57.319-133.524 90.53-76.28 33.21-163.097 33.21Z"/></svg>