<svg xmlns="http://www.w3.org/2000/svg" fill="#828282" height="24" viewBox="0 -960 960 960" width="24"><path d="M480.029-121.833q-149.362 0-253.779-104.486-104.417-104.485-104.417-253.75 0-149.264 104.466-253.848Q330.764-838.5 480-838.5q8.569 0 18.118.583 9.548.584 22.382 1.917-36.833 31.5-57.417 77.667-20.583 46.166-20.583 98.208 0 90.833 63.438 154.229Q569.375-442.5 660-442.5q52.273 0 98.332-19.613Q804.39-481.726 836-516.5q1.333 11.5 1.917 20.049.583 8.549.583 16.451 0 149.236-104.554 253.701-104.554 104.466-253.917 104.466Z"/></svg>