<svg xmlns="http://www.w3.org/2000/svg" fill="#EB5757" height="48" viewBox="0 -960 960 960" width="48"><path d="M184.348-101.174q-33.501 0-58.338-24.836-24.836-24.837-24.836-58.338v-190.609h83.174v190.609h591.304v-591.304H184.348v189.609h-83.174v-189.609q0-33.734 24.836-58.737 24.837-25.002 58.338-25.002h591.304q33.734 0 58.737 25.002 25.002 25.003 25.002 58.737v591.304q0 33.501-25.002 58.338-25.003 24.836-58.737 24.836H184.348Zm236.696-163.739-61.348-61.652 111.782-112.348H101.174v-83.174h370.304L359.696-634.435l61.348-60.652 214.652 214.652-214.652 215.522Z"/></svg>