<svg xmlns="http://www.w3.org/2000/svg" fill="#828282" height="24" viewBox="0 -960 960 960" width="24"><path d="M480-281.833q-82.333 0-140.25-57.917T281.833-480q0-82.333 57.917-140.417Q397.667-678.5 480-678.5t140.417 58.083Q678.5-562.333 678.5-480t-58.083 140.25Q562.333-281.833 480-281.833ZM73.333-448.5q-13.333 0-22.416-9.117-9.084-9.117-9.084-22.5t9.084-22.55q9.083-9.166 22.416-9.166h93.334q13.333 0 22.583 9.283 9.25 9.284 9.25 22.667 0 13.383-9.25 22.383t-22.583 9H73.333Zm720 0q-13.333 0-22.416-9.117-9.084-9.117-9.084-22.5t9.084-22.55q9.083-9.166 22.416-9.166h93.334q13.333 0 22.583 9.283 9.25 9.284 9.25 22.667 0 13.383-9.25 22.383t-22.583 9h-93.334Zm-313.45-313.333q-13.383 0-22.383-9.084-9-9.083-9-22.416v-93.334q0-13.333 9.117-22.583 9.117-9.25 22.5-9.25t22.55 9.25q9.166 9.25 9.166 22.583v93.334q0 13.333-9.283 22.416-9.284 9.084-22.667 9.084Zm0 720q-13.383 0-22.383-9.084-9-9.083-9-22.416v-93.334q0-13.333 9.117-22.583 9.117-9.25 22.5-9.25t22.55 9.25q9.166 9.25 9.166 22.583v93.334q0 13.333-9.283 22.416-9.284 9.084-22.667 9.084ZM236.5-679.333l-52.333-51.334q-9.834-9.167-9.42-22.402.414-13.236 9.517-22.667 9.265-9.431 22.584-9.681 13.318-.25 22.485 9.25l51.334 52.334q9 9.833 9 22.5 0 12.666-9 21.833-8.834 9.5-21.75 9.25-12.917-.25-22.417-9.083Zm494.167 495.166L679.333-236.5q-8.833-9.5-8.916-22.5-.084-13 9.25-22.167 8.833-9.5 21.583-9.083 12.75.417 22.583 9.583l52.334 51.334q9.5 9.167 9.086 22.402-.414 13.236-9.517 22.667-9.265 9.431-22.584 9.681-13.318.25-22.485-9.584Zm-51.5-495.166q-9.834-9.167-9.417-21.917.417-12.75 9.583-22.583l51.334-52.334q9.167-9.5 22.402-9.086 13.236.414 22.667 9.517 9.431 9.265 9.681 22.584.25 13.318-9.25 22.485l-52.334 51.334q-9.166 9-22.076 9-12.909 0-22.59-9ZM184.264-184.264q-9.431-9.265-9.681-22.584-.25-13.318 9.584-22.485l52.333-51.334q9.367-9.166 22.183-9.416 12.817-.25 22.223 9.416 9.761 9.167 9.344 21.917-.417 12.75-9.583 22.25l-51.334 52.333q-9.167 9.834-22.402 9.337-13.236-.498-22.667-9.434Z"/></svg>