<svg xmlns="http://www.w3.org/2000/svg" fill="#4F4F4F" height="48" viewBox="0 -960 960 960" width="48"><path d="M16.348-130v-112.957q0-40.877 20.211-72.807t56.92-48.432q74.956-32.413 135.846-47.413 60.889-15 125.423-15 65.619 0 126.023 15 60.403 15 135.403 47.435 36.268 15.485 57.178 47.541 20.91 32.057 20.91 73.645V-130H16.348Zm745.436 0v-112.696q0-63.695-32.066-107.565-32.065-43.869-85.5-77.391 66.522 9.565 125.173 24.934 58.652 15.37 97.576 34.983 35.392 19.198 56.538 51.749 21.147 32.551 21.147 75.016V-130H761.784ZM355.445-490.087q-72.125 0-116.719-44.595-44.595-44.594-44.595-115.796 0-71.768 44.62-116.862 44.619-45.095 116.079-45.095 70.894 0 116.554 45t45.66 116.174q0 71.985-45.407 116.579-45.407 44.595-116.192 44.595Zm392.816-161.179q0 71.425-45.225 116.302-45.224 44.877-116.054 44.877-13.503 0-26.959-1.718-13.457-1.717-27.022-6.717 25.565-27.846 38.065-66.11 12.5-38.264 12.5-85.968 0-47.705-12.588-84.608-12.587-36.903-37.977-68.866 12.054-3.676 26.896-6.018 14.843-2.343 27.049-2.343 70.636 0 115.976 45.278 45.339 45.277 45.339 115.891Z"/></svg>